# xmcd
#
# Track frame offsets: 
#        150
#        14055
#        35604
#        52612
#        64464
#        76700
#        86604
#        101932
#        114083
#        137091
#        148450
#        162667
#        177989
#
# Disc length: 2824 seconds
#
# Revision: 16
# Processed by: cddbd v1.5.2PL0 Copyright (c) Steve Scherf et al.
# Submitted via: ExactAudioCopy v0.99pb5
#
DISCID=b60b060d
DTITLE=Paul McCartney - 2005 Chaos And Creation In The Backyard
DYEAR=2005
DGENRE=Rock
TTITLE0=01 Fine Line
TTITLE1=02 How Kind Of You
TTITLE2=03 Jenny Wren
TTITLE3=04 At The Mercy
TTITLE4=05 Friends To Go
TTITLE5=06 English Tea
TTITLE6=07 Too Much Rain
TTITLE7=08 A Certain Softness
TTITLE8=09 Riding To Vanity Fair
TTITLE9=10 Follow Me
TTITLE10=11 Promise To You Girl
TTITLE11=12 This Never Happened Before
TTITLE12=13 Anyway
EXTD=YEAR: 2005
EXTT0=
EXTT1=
EXTT2=
EXTT3=
EXTT4=
EXTT5=
EXTT6=
EXTT7=
EXTT8=
EXTT9=
EXTT10=
EXTT11=
EXTT12=
PLAYORDER=
